# xmcd
#
# Track frame offsets: 
#        205
#        23897
#        38612
#        55267
#        72545
#        88735
#        107295
#        125877
#        145702
#        169930
#        183502
#        199660
#        208552
#        222435
#        235572
#
# Disc length: 3394 seconds
#
# Revision: 0
# Processed by: cddbd v1.5.1PL0 Copyright (c) Steve Scherf et al.
# Submitted via: ExactAudioCopy v0.95a3
#
DISCID=d70d400f
DTITLE=Эдита Пьеха - Тем, Кто Любит Пьеху
DYEAR=1996
DGENRE=Retro
TTITLE0=Бал
TTITLE1=Белый Свет
TTITLE2=Затра
TTITLE3=Горечь
TTITLE4=Помолчим
TTITLE5=Семейный Альбом
TTITLE6=Стань Таким
TTITLE7=Мама
TTITLE8=Радуга
TTITLE9=Мне Казалось
TTITLE10=Вероника
TTITLE11=Только Ты
TTITLE12=Королева Звёзд
TTITLE13=Белый Вечер
TTITLE14=Танго С Дождём
EXTD=
EXTT0=
EXTT1=
EXTT2=
EXTT3=
EXTT4=
EXTT5=
EXTT6=
EXTT7=
EXTT8=
EXTT9=
EXTT10=
EXTT11=
EXTT12=
EXTT13=
EXTT14=
PLAYORDER=
